<svg width="120" height="40" viewBox="0 0 120 40" fill="none" xmlns="http://www.w3.org/2000/svg">
<path d="M94.3972 10.105C93.2917 9.52849 92.0779 9.23799 90.7603 9.23799C89.1449 9.23799 87.7732 9.62682 86.6406 10.4C86.1036 10.7665 85.6298 11.1732 85.2102 11.6156L84.9801 9.60447H80.9145V28.0715H85.3501V17.6581C85.3501 16.5274 85.5667 15.6469 86.0043 15.0168C86.4375 14.3911 86.9925 13.9441 87.6649 13.6849C88.3372 13.4257 89.0186 13.2961 89.7135 13.2961C90.8325 13.2961 91.7711 13.6536 92.5291 14.3687C93.2872 15.0838 93.6662 16.1654 93.6662 17.6179V28.0715H98.0657V16.9564C98.0657 15.2581 97.7318 13.8369 97.0595 12.6927C96.3871 11.5486 95.4982 10.686 94.3927 10.1095L94.3972 10.105Z" fill="black"/>
<path d="M10.5633 35.5307C7.98227 35.5307 5.61331 34.3553 4.06108 32.3039L0.451245 34.9855C2.82471 38.1274 6.60602 40 10.5633 40C14.8049 40 18.7396 37.9084 21.0905 34.4045L17.3317 31.933C15.8201 34.1855 13.2887 35.5307 10.5633 35.5307Z" fill="#051ED6"/>
<path d="M29.9212 9.67598H25.4087V28.0715H29.9212V9.67598Z" fill="#051ED6"/>
<path d="M74.8456 9.67598H70.3331V28.0715H74.8456V9.67598Z" fill="black"/>
<path d="M44.7665 35.5307C42.1855 35.5307 39.8165 34.3553 38.2643 32.3039L34.6544 34.9855C37.0279 38.1274 40.8092 40 44.7665 40C49.008 40 52.9428 37.9084 55.2937 34.4045L51.5349 31.933C50.0233 34.1855 47.4919 35.5307 44.7665 35.5307Z" fill="#051ED6"/>
<path d="M64.1199 0H59.6074V28.0715H64.1199V0Z" fill="black"/>
<path d="M27.665 7.12402C29.0132 7.12402 30.1062 6.0415 30.1062 4.70615C30.1062 3.37079 29.0132 2.28827 27.665 2.28827C26.3167 2.28827 25.2237 3.37079 25.2237 4.70615C25.2237 6.0415 26.3167 7.12402 27.665 7.12402Z" fill="#051ED6"/>
<path d="M72.5894 7.12402C73.9377 7.12402 75.0306 6.0415 75.0306 4.70615C75.0306 3.37079 73.9377 2.28827 72.5894 2.28827C71.2411 2.28827 70.1482 3.37079 70.1482 4.70615C70.1482 6.0415 71.2411 7.12402 72.5894 7.12402Z" fill="black"/>
<path d="M113.845 18.4447C116.507 16.5452 118.249 13.448 118.249 9.95307C118.249 9.82793 118.249 9.70726 118.24 9.58659L113.651 10.9408C113.177 13.7743 110.687 15.9419 107.69 15.9464V0.527374H103.255V28.2235H107.69V20.4112C108.412 20.4112 109.121 20.3397 109.802 20.2011L114.662 28.2324H120L113.845 18.4447Z" fill="black"/>
<path d="M21.1266 9.38101H10.5633C4.73791 9.38101 0 14.0737 0 19.8436C0 25.6134 4.73791 30.3061 10.5633 30.3061C16.3887 30.3061 21.1266 25.6134 21.1266 19.8436C21.1266 17.3408 20.2331 15.0391 18.7486 13.238L21.1266 9.38101ZM10.5633 25.8369C7.22419 25.8369 4.5123 23.1464 4.5123 19.8436C4.5123 16.5408 7.2287 13.8503 10.5633 13.8503C13.8979 13.8503 16.6143 16.5408 16.6143 19.8436C16.6143 23.1464 13.8979 25.8369 10.5633 25.8369Z" fill="#051ED6"/>
<path d="M55.3298 9.38101H44.7665C38.9411 9.38101 34.2032 14.0737 34.2032 19.8436C34.2032 25.6134 38.9411 30.3061 44.7665 30.3061C50.5919 30.3061 55.3298 25.6134 55.3298 19.8436C55.3298 17.3408 54.4363 15.0391 52.9518 13.238L55.3298 9.38101ZM44.7665 25.8369C41.4274 25.8369 38.7155 23.1464 38.7155 19.8436C38.7155 16.5408 41.4319 13.8503 44.7665 13.8503C48.1011 13.8503 50.8175 16.5408 50.8175 19.8436C50.8175 23.1464 48.1011 25.8369 44.7665 25.8369Z" fill="#051ED6"/>
</svg>
